<svg xmlns="http://www.w3.org/2000/svg" width="120" height="120" viewBox="0 0 120 120">
<g fill="#004d40" stroke="none">
<path d="M 93,53 L 93,55 L 94,56 L 94,58 L 95,59 L 95,72 L 94,73 L 94,75 L 93,76 L 93,77 L 92,78 L 92,79 L 91,80 L 91,81 L 84,88 L 83,88 L 82,89 L 81,89 L 80,90 L 79,90 L 78,91 L 76,91 L 75,92 L 67,92 L 66,91 L 64,91 L 63,90 L 61,90 L 60,89 L 59,89 L 58,88 L 57,88 L 54,85 L 53,85 L 50,82 L 49,82 L 45,78 L 44,78 L 43,77 L 42,77 L 41,76 L 40,76 L 39,75 L 37,75 L 36,74 L 28,74 L 27,75 L 25,75 L 24,76 L 23,76 L 18,81 L 18,82 L 17,83 L 17,85 L 18,84 L 19,84 L 20,83 L 21,83 L 22,82 L 30,82 L 31,83 L 30,84 L 27,84 L 27,85 L 28,86 L 28,87 L 29,88 L 29,89 L 30,90 L 30,91 L 32,93 L 32,94 L 39,101 L 40,101 L 42,103 L 43,103 L 44,104 L 45,104 L 46,105 L 47,105 L 48,106 L 49,106 L 50,107 L 53,107 L 54,108 L 69,108 L 70,107 L 73,107 L 74,106 L 75,106 L 76,105 L 77,105 L 78,104 L 79,104 L 80,103 L 81,103 L 83,101 L 84,101 L 91,94 L 91,93 L 93,91 L 93,90 L 94,89 L 94,88 L 95,87 L 95,86 L 96,85 L 96,83 L 97,82 L 97,79 L 98,78 L 98,66 L 97,65 L 97,62 L 96,61 L 96,59 L 95,58 L 95,56 L 94,55 L 94,54 Z" />
<path d="M 81,41 L 82,42 L 82,48 L 81,49 L 81,53 L 80,54 L 80,56 L 79,57 L 79,58 L 78,59 L 78,60 L 76,62 L 76,63 L 69,70 L 68,70 L 61,77 L 61,78 L 60,79 L 60,80 L 59,81 L 59,82 L 58,83 L 58,84 L 59,84 L 61,86 L 63,86 L 64,87 L 66,87 L 67,88 L 74,88 L 75,87 L 77,87 L 78,86 L 79,86 L 80,85 L 81,85 L 82,84 L 83,84 L 86,81 L 86,80 L 88,78 L 88,77 L 89,76 L 89,75 L 90,74 L 90,72 L 91,71 L 91,60 L 90,59 L 90,56 L 89,55 L 89,54 L 88,53 L 88,51 L 87,50 L 87,49 L 86,48 L 86,47 L 84,45 L 84,44 L 83,43 L 83,42 L 82,41 Z" />
<path d="M 59,11 L 59,19 L 58,20 L 58,22 L 57,23 L 57,25 L 55,27 L 55,28 L 53,30 L 53,31 L 44,40 L 43,40 L 34,49 L 34,50 L 32,52 L 32,53 L 30,55 L 30,56 L 29,57 L 29,59 L 28,60 L 28,62 L 27,63 L 27,66 L 26,67 L 26,71 L 31,71 L 31,70 L 32,69 L 32,65 L 33,64 L 33,62 L 34,61 L 34,60 L 35,59 L 35,58 L 36,57 L 36,56 L 38,54 L 38,53 L 56,35 L 56,34 L 57,33 L 57,32 L 58,31 L 58,30 L 59,29 L 59,28 L 60,27 L 60,19 L 61,18 L 62,19 L 62,21 L 63,22 L 63,31 L 62,32 L 62,34 L 61,35 L 61,37 L 59,39 L 59,40 L 57,42 L 57,43 L 45,55 L 45,56 L 42,59 L 42,60 L 41,61 L 41,62 L 40,63 L 40,64 L 39,65 L 39,67 L 38,68 L 38,71 L 39,71 L 40,72 L 41,72 L 42,73 L 43,73 L 44,74 L 45,74 L 46,75 L 47,75 L 51,79 L 52,79 L 54,81 L 55,80 L 55,79 L 57,77 L 57,76 L 73,60 L 73,59 L 74,58 L 74,57 L 75,56 L 75,55 L 76,54 L 76,53 L 77,52 L 77,49 L 78,48 L 78,39 L 77,38 L 77,35 L 76,34 L 76,32 L 75,31 L 75,30 L 74,29 L 74,28 L 73,27 L 73,26 L 71,24 L 71,23 L 68,20 L 68,19 L 60,11 Z" />
</g></svg>